<?xml version="1.0" standalone="no"?>
<!DOCTYPE svg PUBLIC "-//W3C//DTD SVG 20010904//EN"
 "http://www.w3.org/TR/2001/REC-SVG-20010904/DTD/svg10.dtd">
<svg version="1.0" xmlns="http://www.w3.org/2000/svg"
 width="400.000000pt" height="400.000000pt" viewBox="0 0 400.000000 400.000000"
 preserveAspectRatio="xMidYMid meet">
<metadata>
Created by potrace 1.14, written by Peter Selinger 2001-2017
</metadata>
<g transform="translate(0.000000,400.000000) scale(0.100000,-0.100000)"
fill="#000000" stroke="none">
<path d="M1494 3976 c-11 -11 -38 -34 -58 -49 -20 -16 -41 -39 -46 -51 -11
-29 -109 -146 -186 -221 -64 -62 -121 -144 -194 -280 -24 -44 -61 -100 -81
-125 -21 -25 -46 -63 -55 -85 -22 -52 -30 -202 -15 -280 7 -33 14 -152 18
-265 5 -188 4 -212 -16 -290 -34 -132 -77 -260 -117 -346 -66 -141 -116 -294
-120 -363 -4 -85 16 -123 122 -232 46 -47 84 -93 84 -102 0 -9 4 -17 8 -17 9
0 12 -5 70 -132 57 -123 98 -162 209 -196 43 -14 82 -18 126 -16 64 4 65 4
106 -37 22 -23 41 -45 41 -50 0 -4 28 -27 63 -51 34 -23 84 -59 111 -81 77
-60 137 -86 223 -97 75 -9 621 -6 673 3 14 3 50 8 80 11 30 4 101 16 158 26
114 22 174 25 202 10 21 -11 83 -107 134 -208 20 -40 38 -72 41 -72 8 0 -41
106 -96 208 -53 101 -52 114 14 95 32 -9 40 -18 177 -206 30 -41 56 -72 58
-67 4 10 -50 114 -77 150 -80 105 -120 197 -92 214 10 7 125 -128 186 -218 22
-32 53 -77 68 -100 17 -24 27 -52 25 -67 -2 -18 7 -36 29 -57 17 -17 34 -43
37 -58 4 -15 20 -43 37 -63 16 -20 29 -41 29 -47 0 -23 43 -65 92 -90 27 -14
53 -23 56 -20 11 12 -19 84 -63 149 -25 37 -45 72 -45 77 0 6 -4 10 -9 10 -5
0 -26 30 -46 68 -21 37 -77 123 -125 192 -126 180 -139 210 -88 210 12 0 29 6
37 14 23 21 128 26 218 11 43 -7 110 -16 148 -20 124 -11 148 -16 237 -51 48
-19 94 -34 103 -34 13 0 15 181 15 1660 l0 1660 -1242 -1 -1243 -1 -21 -22z"/>
</g>
</svg>
